<svg width="1600" height="1118" fill="none" xmlns="http://www.w3.org/2000/svg" id="svg994252324_826"><g opacity=".1" stroke="#BBDDE5"><g clip-path="url(#svg994252324_826_a)"><path d="M31.5 31.5h256v256h-256zm256 0h256v256h-256zm256 0h256v256h-256zm256 0h256v256h-256zm256 0h256v256h-256zm256 0h256v256h-256zm-1280 256h256v256h-256zm256 0h256v256h-256zm256 0h256v256h-256zm256 0h256v256h-256zm256 0h256v256h-256zm256 0h256v256h-256zm-1280 256h256v256h-256zm256 0h256v256h-256zm256 0h256v256h-256zm256 0h256v256h-256zm256 0h256v256h-256zm256 0h256v256h-256zm-1280 256h256v256h-256zm256 0h256v256h-256zm256 0h256v256h-256zm256 0h256v256h-256zm256 0h256v256h-256zm256 0h256v256h-256z"></path></g><rect x="32.5" y="32.5" width="1534" height="1022" rx="7.5"></rect></g><defs><clipPath id="svg994252324_826_a"><rect x="32" y="32" width="1535" height="1023" rx="8" fill="#fff"></rect></clipPath></defs></svg>