<svg xmlns="http://www.w3.org/2000/svg" width="1344" height="1359" fill="none"><g clip-path="url(#a)" opacity=".12"><circle cx="672" cy="672" r="687" stroke="#BBDDE5"/><path stroke="#BBDDE5" d="M1129.5 672.5c0 252.946-205.054 458-458 458s-458-205.054-458-458 205.054-458 458-458 458 205.054 458 458z"/><path stroke="#BBDDE5" d="M900.5 672.5c0 126.473-102.527 229-229 229s-229-102.527-229-229 102.527-229 229-229 229 102.527 229 229z"/><path stroke="#BBDDE5" d="M703.5 672.5c0 17.673-14.327 32-32 32-17.673 0-32-14.327-32-32 0-17.673 14.327-32 32-32 17.673 0 32 14.327 32 32z"/><g fill="#BBDDE5" clip-path="url(#b)"><path d="M213 214v1h1v-1h-1zm-1-228v228h2V-14h-2zm1 227H-15v2h228v-2z" mask="url(#path-7-outside-1_734_7562)"/><path d="M442 214v1h1v-1h-1zm-1-228v228h2V-14h-2zm1 227H214v2h228v-2z" mask="url(#path-9-outside-2_734_7562)"/><path d="M671 214v1h1v-1h-1zm-1-228v228h2V-14h-2zm1 227H443v2h228v-2z" mask="url(#path-11-outside-3_734_7562)"/><path d="M900 214v1h1v-1h-1zm-1-228v228h2V-14h-2zm1 227H672v2h228v-2z" mask="url(#path-13-outside-4_734_7562)"/><path d="M1129 214v1h1v-1h-1zm-1-228v228h2V-14h-2zm1 227H901v2h228v-2z" mask="url(#path-15-outside-5_734_7562)"/><path d="M1358 214v1h1v-1h-1zm-1-228v228h2V-14h-2zm1 227h-228v2h228v-2z" mask="url(#path-17-outside-6_734_7562)"/><path d="M213 443v1h1v-1h-1zm-1-228v228h2V215h-2zm1 227H-15v2h228v-2z" mask="url(#path-19-outside-7_734_7562)"/><path d="M442 443v1h1v-1h-1zm-1-228v228h2V215h-2zm1 227H214v2h228v-2z" mask="url(#path-21-outside-8_734_7562)"/><path d="M671 443v1h1v-1h-1zm-1-228v228h2V215h-2zm1 227H443v2h228v-2z" mask="url(#path-23-outside-9_734_7562)"/><path d="M900 443v1h1v-1h-1zm-1-228v228h2V215h-2zm1 227H672v2h228v-2z" mask="url(#path-25-outside-10_734_7562)"/><path d="M1129 443v1h1v-1h-1zm-1-228v228h2V215h-2zm1 227H901v2h228v-2z" mask="url(#path-27-outside-11_734_7562)"/><path d="M1358 443v1h1v-1h-1zm-1-228v228h2V215h-2zm1 227h-228v2h228v-2z" mask="url(#path-29-outside-12_734_7562)"/><path d="M213 672v1h1v-1h-1zm-1-228v228h2V444h-2zm1 227H-15v2h228v-2z" mask="url(#path-31-outside-13_734_7562)"/><path d="M442 672v1h1v-1h-1zm-1-228v228h2V444h-2zm1 227H214v2h228v-2z" mask="url(#path-33-outside-14_734_7562)"/><path d="M671 672v1h1v-1h-1zm-1-228v228h2V444h-2zm1 227H443v2h228v-2z" mask="url(#path-35-outside-15_734_7562)"/><path d="M900 672v1h1v-1h-1zm-1-228v228h2V444h-2zm1 227H672v2h228v-2z" mask="url(#path-37-outside-16_734_7562)"/><path d="M1129 672v1h1v-1h-1zm-1-228v228h2V444h-2zm1 227H901v2h228v-2z" mask="url(#path-39-outside-17_734_7562)"/><path d="M1358 672v1h1v-1h-1zm-1-228v228h2V444h-2zm1 227h-228v2h228v-2z" mask="url(#path-41-outside-18_734_7562)"/><path d="M213 901v1h1v-1h-1zm-1-228v228h2V673h-2zm1 227H-15v2h228v-2z" mask="url(#path-43-outside-19_734_7562)"/><path d="M442 901v1h1v-1h-1zm-1-228v228h2V673h-2zm1 227H214v2h228v-2z" mask="url(#path-45-outside-20_734_7562)"/><path d="M671 901v1h1v-1h-1zm-1-228v228h2V673h-2zm1 227H443v2h228v-2z" mask="url(#path-47-outside-21_734_7562)"/><path d="M900 901v1h1v-1h-1zm-1-228v228h2V673h-2zm1 227H672v2h228v-2z" mask="url(#path-49-outside-22_734_7562)"/><path d="M1129 901v1h1v-1h-1zm-1-228v228h2V673h-2zm1 227H901v2h228v-2z" mask="url(#path-51-outside-23_734_7562)"/><path d="M1358 901v1h1v-1h-1zm-1-228v228h2V673h-2zm1 227h-228v2h228v-2z" mask="url(#path-53-outside-24_734_7562)"/><path d="M213 1130v1h1v-1h-1zm-1-228v228h2V902h-2zm1 227H-15v2h228v-2z" mask="url(#path-55-outside-25_734_7562)"/><path d="M442 1130v1h1v-1h-1zm-1-228v228h2V902h-2zm1 227H214v2h228v-2z" mask="url(#path-57-outside-26_734_7562)"/><path d="M671 1130v1h1v-1h-1zm-1-228v228h2V902h-2zm1 227H443v2h228v-2z" mask="url(#path-59-outside-27_734_7562)"/><path d="M900 1130v1h1v-1h-1zm-1-228v228h2V902h-2zm1 227H672v2h228v-2z" mask="url(#path-61-outside-28_734_7562)"/><path d="M1129 1130v1h1v-1h-1zm-1-228v228h2V902h-2zm1 227H901v2h228v-2z" mask="url(#path-63-outside-29_734_7562)"/><path d="M1358 1130v1h1v-1h-1zm-1-228v228h2V902h-2zm1 227h-228v2h228v-2z" mask="url(#path-65-outside-30_734_7562)"/><path d="M213 1359v1h1v-1h-1zm-1-228v228h2v-228h-2zm1 227H-15v2h228v-2z" mask="url(#path-67-outside-31_734_7562)"/><path d="M442 1359v1h1v-1h-1zm-1-228v228h2v-228h-2zm1 227H214v2h228v-2z" mask="url(#path-69-outside-32_734_7562)"/><path d="M671 1359v1h1v-1h-1zm-1-228v228h2v-228h-2zm1 227H443v2h228v-2z" mask="url(#path-71-outside-33_734_7562)"/><path d="M900 1359v1h1v-1h-1zm-1-228v228h2v-228h-2zm1 227H672v2h228v-2z" mask="url(#path-73-outside-34_734_7562)"/><path d="M1129 1359v1h1v-1h-1zm-1-228v228h2v-228h-2zm1 227H901v2h228v-2z" mask="url(#path-75-outside-35_734_7562)"/><path d="M1358 1359v1h1v-1h-1zm-1-228v228h2v-228h-2zm1 227h-228v2h228v-2z" mask="url(#path-77-outside-36_734_7562)"/></g><rect width="1374" height="1374" x="-15.5" y="-14.5" stroke="#BBDDE5" rx="8.5"/></g><defs><clipPath id="a"><path fill="#fff" d="M0 0h1344v1359H0z"/></clipPath><clipPath id="b"><rect width="1373" height="1373" x="-15" y="-14" fill="#fff" rx="8"/></clipPath></defs></svg>